<svg xmlns="http://www.w3.org/2000/svg" xmlns:xlink="http://www.w3.org/1999/xlink" width="500" zoomAndPan="magnify" viewBox="0 0 375 374.999991" height="500" preserveAspectRatio="xMidYMid meet" version="1.0"><defs><g/><clipPath id="2e198c8fd0"><path d="M 104 250.613281 L 271 250.613281 L 271 356 L 104 356 Z M 104 250.613281 " clip-rule="nonzero"/></clipPath><clipPath id="aa86e14e0c"><path d="M 102.605469 250.613281 L 272.105469 250.613281 L 272.105469 357.785156 L 102.605469 357.785156 Z M 102.605469 250.613281 " clip-rule="nonzero"/></clipPath><clipPath id="352a3390ed"><path d="M 104 19 L 267.605469 19 L 267.605469 188.285156 L 104 188.285156 Z M 104 19 " clip-rule="nonzero"/></clipPath><clipPath id="c923891e5f"><path d="M 102.605469 17.285156 L 267.605469 17.285156 L 267.605469 188.285156 L 102.605469 188.285156 Z M 102.605469 17.285156 " clip-rule="nonzero"/></clipPath></defs><g clip-path="url(#2e198c8fd0)"><path fill="#ffbe2d" d="M 151.894531 272.488281 L 158.953125 186.238281 L 216.015625 186.238281 L 223.074219 272.488281 Z M 230.359375 272.488281 L 143.855469 272.488281 C 143.855469 286.394531 136.605469 299.636719 126.878906 308.867188 L 115.957031 319.226562 C 112.636719 321.332031 110.597656 325.152344 110.597656 329.289062 C 110.597656 335.75 115.496094 340.988281 121.539062 340.980469 L 253.4375 340.921875 C 259.480469 340.921875 264.371094 335.683594 264.371094 329.230469 L 264.371094 329.222656 C 264.371094 325.089844 262.332031 321.265625 259.007812 319.160156 L 245.949219 307.015625 C 236.644531 298.363281 231.867188 286.042969 231.214844 272.875 Z M 270.265625 348.164062 C 270.265625 344.191406 267.050781 340.980469 263.082031 340.980469 L 111.886719 340.980469 C 107.917969 340.980469 104.703125 344.191406 104.703125 348.164062 C 104.703125 352.132812 107.917969 355.347656 111.886719 355.347656 L 263.082031 355.347656 C 267.050781 355.347656 270.265625 352.132812 270.265625 348.164062 Z M 239.277344 177.484375 C 239.277344 172.625 235.34375 168.6875 230.484375 168.6875 L 144.484375 168.6875 C 139.625 168.6875 135.691406 172.625 135.691406 177.484375 C 135.691406 182.34375 139.625 186.277344 144.484375 186.277344 L 230.484375 186.277344 C 235.34375 186.277344 239.277344 182.34375 239.277344 177.484375 Z M 233.511719 159.894531 C 233.511719 155.035156 229.578125 151.097656 224.71875 151.097656 L 150.25 151.097656 C 145.390625 151.097656 141.457031 155.035156 141.457031 159.894531 C 141.457031 164.753906 145.390625 168.6875 150.25 168.6875 L 224.710938 168.6875 C 229.578125 168.6875 233.511719 164.753906 233.511719 159.894531 Z M 211.625 64.058594 C 211.625 59.199219 207.6875 55.261719 202.828125 55.261719 L 172.136719 55.261719 C 167.277344 55.261719 163.34375 59.199219 163.34375 64.058594 C 163.34375 68.917969 167.277344 72.855469 172.136719 72.855469 L 202.820312 72.855469 C 207.6875 72.855469 211.625 68.917969 211.625 64.058594 Z M 229.570312 72.855469 L 145.398438 72.855469 C 138.921875 72.855469 134.195312 79.003906 135.882812 85.265625 L 153.558594 151.097656 L 221.417969 151.097656 L 239.09375 85.265625 C 240.773438 79.003906 236.054688 72.855469 229.570312 72.855469 Z M 206.539062 31 L 195.183594 31 L 195.183594 19.644531 L 182.277344 19.644531 L 182.277344 31 L 170.921875 31 L 170.921875 43.917969 L 182.277344 43.917969 L 182.277344 55.269531 L 195.191406 55.269531 L 195.191406 43.90625 L 206.546875 43.90625 L 206.546875 31 Z M 206.539062 31 " fill-opacity="1" fill-rule="nonzero"/></g><g clip-path="url(#aa86e14e0c)"><path fill="#f5f5ef" d="M 223.074219 274.585938 L 151.902344 274.585938 C 151.316406 274.585938 150.753906 274.34375 150.359375 273.90625 C 149.964844 273.46875 149.765625 272.898438 149.8125 272.3125 L 156.871094 186.0625 C 156.964844 184.96875 157.871094 184.128906 158.960938 184.128906 L 216.023438 184.128906 C 217.113281 184.128906 218.027344 184.96875 218.113281 186.0625 L 225.171875 272.3125 C 225.222656 272.898438 225.019531 273.46875 224.625 273.90625 C 224.214844 274.34375 223.660156 274.585938 223.074219 274.585938 Z M 154.179688 270.390625 L 220.796875 270.390625 L 214.085938 188.335938 L 160.882812 188.335938 Z M 121.539062 343.078125 C 118.03125 343.078125 114.742188 341.625 112.273438 338.988281 C 109.839844 336.386719 108.507812 332.945312 108.507812 329.289062 C 108.507812 324.539062 110.855469 320.074219 114.667969 317.570312 L 125.441406 307.351562 C 135.664062 297.648438 141.765625 284.613281 141.765625 272.488281 C 141.765625 271.328125 142.707031 270.390625 143.863281 270.390625 L 230.367188 270.390625 C 230.660156 270.390625 230.953125 270.457031 231.222656 270.574219 L 232.078125 270.960938 C 232.800781 271.277344 233.277344 271.984375 233.3125 272.773438 C 233.964844 286.03125 238.960938 297.648438 247.378906 305.476562 L 260.300781 317.496094 C 264.113281 319.996094 266.472656 324.472656 266.472656 329.222656 C 266.472656 336.832031 260.621094 343.019531 253.4375 343.027344 Z M 145.902344 274.585938 C 145.273438 287.367188 138.945312 300.316406 128.320312 310.394531 L 117.402344 320.753906 C 117.300781 320.84375 117.191406 320.929688 117.082031 321.003906 C 114.382812 322.714844 112.695312 325.898438 112.695312 329.289062 C 112.695312 331.882812 113.632812 334.308594 115.335938 336.128906 C 117 337.90625 119.207031 338.890625 121.539062 338.890625 L 253.4375 338.832031 C 258.3125 338.832031 262.273438 334.523438 262.273438 329.238281 C 262.273438 325.832031 260.597656 322.65625 257.886719 320.9375 C 257.777344 320.871094 257.675781 320.785156 257.582031 320.703125 L 244.523438 308.558594 C 235.644531 300.300781 230.25 288.289062 229.226562 274.59375 L 145.902344 274.59375 Z M 263.082031 357.445312 L 111.886719 357.445312 C 106.769531 357.445312 102.605469 353.28125 102.605469 348.164062 C 102.605469 343.042969 106.769531 338.878906 111.886719 338.878906 L 263.082031 338.878906 C 268.199219 338.878906 272.363281 343.042969 272.363281 348.164062 C 272.363281 353.28125 268.199219 357.445312 263.082031 357.445312 Z M 111.886719 343.078125 C 109.085938 343.078125 106.800781 345.359375 106.800781 348.164062 C 106.800781 350.964844 109.085938 353.25 111.886719 353.25 L 263.082031 353.25 C 265.882812 353.25 268.167969 350.964844 268.167969 348.164062 C 268.167969 345.359375 265.882812 343.078125 263.082031 343.078125 Z M 230.484375 188.378906 L 144.484375 188.378906 C 138.476562 188.378906 133.589844 183.492188 133.589844 177.484375 C 133.589844 171.472656 138.476562 166.589844 144.484375 166.589844 L 230.484375 166.589844 C 236.492188 166.589844 241.378906 171.472656 241.378906 177.484375 C 241.378906 183.492188 236.492188 188.378906 230.484375 188.378906 Z M 144.484375 170.785156 C 140.792969 170.785156 137.789062 173.789062 137.789062 177.484375 C 137.789062 181.175781 140.792969 184.179688 144.484375 184.179688 L 230.484375 184.179688 C 234.175781 184.179688 237.179688 181.175781 237.179688 177.484375 C 237.179688 173.789062 234.175781 170.785156 230.484375 170.785156 Z M 224.71875 170.785156 L 150.25 170.785156 C 144.242188 170.785156 139.355469 165.902344 139.355469 159.894531 C 139.355469 153.882812 144.242188 149 150.25 149 L 224.71875 149 C 230.726562 149 235.613281 153.882812 235.613281 159.894531 C 235.613281 165.902344 230.726562 170.785156 224.71875 170.785156 Z M 150.25 153.195312 C 146.558594 153.195312 143.554688 156.199219 143.554688 159.894531 C 143.554688 163.585938 146.558594 166.589844 150.25 166.589844 L 224.71875 166.589844 C 228.410156 166.589844 231.414062 163.585938 231.414062 159.894531 C 231.414062 156.199219 228.410156 153.195312 224.71875 153.195312 Z M 202.828125 74.953125 L 172.136719 74.953125 C 166.128906 74.953125 161.246094 70.066406 161.246094 64.058594 C 161.246094 58.050781 166.128906 53.164062 172.136719 53.164062 L 202.820312 53.164062 C 208.832031 53.164062 213.714844 58.050781 213.714844 64.058594 C 213.722656 70.066406 208.832031 74.953125 202.828125 74.953125 Z M 172.136719 57.359375 C 168.445312 57.359375 165.441406 60.367188 165.441406 64.058594 C 165.441406 67.75 168.445312 70.753906 172.136719 70.753906 L 202.820312 70.753906 C 206.515625 70.753906 209.519531 67.75 209.519531 64.058594 C 209.519531 60.367188 206.515625 57.359375 202.820312 57.359375 Z M 221.410156 153.195312 L 153.558594 153.195312 C 152.609375 153.195312 151.777344 152.558594 151.535156 151.644531 L 133.851562 85.8125 C 132.878906 82.195312 133.632812 78.410156 135.90625 75.4375 C 138.191406 72.46875 141.648438 70.753906 145.390625 70.753906 L 229.558594 70.753906 C 233.3125 70.753906 236.761719 72.460938 239.042969 75.4375 C 241.328125 78.417969 242.074219 82.195312 241.101562 85.8125 L 223.425781 151.644531 C 223.199219 152.558594 222.367188 153.195312 221.410156 153.195312 Z M 155.160156 149 L 219.800781 149 L 237.054688 84.722656 C 237.683594 82.371094 237.199219 79.921875 235.71875 77.988281 C 234.242188 76.058594 231.996094 74.953125 229.558594 74.953125 L 145.398438 74.953125 C 142.964844 74.953125 140.726562 76.058594 139.238281 77.988281 C 137.761719 79.921875 137.277344 82.371094 137.90625 84.722656 Z M 160.035156 129.578125 C 161.152344 129.277344 161.816406 128.128906 161.523438 127.011719 L 153.777344 98.15625 C 153.472656 97.042969 152.324219 96.378906 151.207031 96.671875 C 150.089844 96.972656 149.429688 98.125 149.722656 99.238281 L 157.46875 128.09375 C 157.71875 129.035156 158.566406 129.644531 159.492188 129.644531 C 159.667969 129.65625 159.851562 129.628906 160.035156 129.578125 Z M 195.191406 57.359375 L 182.277344 57.359375 C 181.117188 57.359375 180.179688 56.421875 180.179688 55.261719 L 180.179688 46.007812 L 170.921875 46.007812 C 169.761719 46.007812 168.824219 45.066406 168.824219 43.90625 L 168.824219 31 C 168.824219 29.84375 169.761719 28.902344 170.921875 28.902344 L 180.179688 28.902344 L 180.179688 19.644531 C 180.179688 18.488281 181.117188 17.546875 182.277344 17.546875 L 195.191406 17.546875 C 196.351562 17.546875 197.289062 18.488281 197.289062 19.644531 L 197.289062 28.902344 L 206.546875 28.902344 C 207.707031 28.902344 208.644531 29.84375 208.644531 31 L 208.644531 43.917969 C 208.644531 45.074219 207.707031 46.015625 206.546875 46.015625 L 197.289062 46.015625 L 197.289062 55.269531 C 197.289062 56.421875 196.351562 57.359375 195.191406 57.359375 Z M 184.375 53.164062 L 193.09375 53.164062 L 193.09375 43.90625 C 193.09375 42.75 194.035156 41.808594 195.191406 41.808594 L 204.449219 41.808594 L 204.449219 33.097656 L 195.191406 33.097656 C 194.035156 33.097656 193.09375 32.160156 193.09375 31 L 193.09375 21.742188 L 184.375 21.742188 L 184.375 31 C 184.375 32.160156 183.433594 33.097656 182.277344 33.097656 L 173.019531 33.097656 L 173.019531 41.816406 L 182.277344 41.816406 C 183.433594 41.816406 184.375 42.757812 184.375 43.917969 Z M 184.375 53.164062 " fill-opacity="1" fill-rule="nonzero"/></g><g fill="#ffbe2d" fill-opacity="1"><g transform="translate(18.441899, 236.014685)"><g><path d="M 18.28125 0.65625 C 16.457031 0.65625 14.722656 0.398438 13.078125 -0.109375 C 11.429688 -0.628906 9.921875 -1.367188 8.546875 -2.328125 C 7.179688 -3.296875 5.988281 -4.457031 4.96875 -5.8125 C 3.957031 -7.175781 3.175781 -8.707031 2.625 -10.40625 C 2.070312 -12.101562 1.796875 -13.929688 1.796875 -15.890625 C 1.796875 -17.847656 2.070312 -19.671875 2.625 -21.359375 C 3.1875 -23.054688 3.972656 -24.582031 4.984375 -25.9375 C 5.992188 -27.300781 7.179688 -28.460938 8.546875 -29.421875 C 9.921875 -30.390625 11.425781 -31.132812 13.0625 -31.65625 C 14.707031 -32.175781 16.4375 -32.4375 18.25 -32.4375 C 20.550781 -32.4375 22.6875 -32.03125 24.65625 -31.21875 C 26.625 -30.414062 28.347656 -29.300781 29.828125 -27.875 C 30.035156 -27.6875 30.128906 -27.488281 30.109375 -27.28125 C 30.085938 -27.082031 29.976562 -26.890625 29.78125 -26.703125 L 27.9375 -25.234375 C 27.550781 -24.878906 27.160156 -24.882812 26.765625 -25.25 C 25.628906 -26.269531 24.34375 -27.066406 22.90625 -27.640625 C 21.46875 -28.222656 19.914062 -28.515625 18.25 -28.515625 C 16.550781 -28.515625 14.953125 -28.210938 13.453125 -27.609375 C 11.953125 -27.003906 10.632812 -26.140625 9.5 -25.015625 C 8.363281 -23.898438 7.472656 -22.570312 6.828125 -21.03125 C 6.179688 -19.488281 5.859375 -17.785156 5.859375 -15.921875 C 5.859375 -14.046875 6.179688 -12.332031 6.828125 -10.78125 C 7.472656 -9.226562 8.367188 -7.890625 9.515625 -6.765625 C 10.660156 -5.648438 11.984375 -4.785156 13.484375 -4.171875 C 14.984375 -3.554688 16.597656 -3.25 18.328125 -3.25 C 19.953125 -3.25 21.488281 -3.539062 22.9375 -4.125 C 24.382812 -4.707031 25.660156 -5.503906 26.765625 -6.515625 C 27.148438 -6.867188 27.539062 -6.875 27.9375 -6.53125 L 29.78125 -5.109375 C 30.238281 -4.710938 30.28125 -4.328125 29.90625 -3.953125 C 28.445312 -2.523438 26.71875 -1.398438 24.71875 -0.578125 C 22.726562 0.242188 20.582031 0.65625 18.28125 0.65625 Z M 18.28125 0.65625 "/></g></g></g><g fill="#ffbe2d" fill-opacity="1"><g transform="translate(55.887148, 236.014685)"><g><path d="M 6.34375 0 L 3.984375 0 C 3.421875 0 3.140625 -0.28125 3.140625 -0.84375 L 3.140625 -30.921875 C 3.140625 -31.484375 3.421875 -31.765625 3.984375 -31.765625 L 6.34375 -31.765625 C 6.914062 -31.765625 7.203125 -31.484375 7.203125 -30.921875 L 7.203125 -13.90625 L 22.703125 -13.90625 L 22.703125 -30.921875 C 22.703125 -31.484375 22.988281 -31.765625 23.5625 -31.765625 L 25.921875 -31.765625 C 26.484375 -31.765625 26.765625 -31.484375 26.765625 -30.921875 L 26.765625 -0.84375 C 26.765625 -0.28125 26.484375 0 25.921875 0 L 23.5625 0 C 22.988281 0 22.703125 -0.28125 22.703125 -0.84375 L 22.703125 -10.109375 L 7.203125 -10.109375 L 7.203125 -0.84375 C 7.203125 -0.28125 6.914062 0 6.34375 0 Z M 6.34375 0 "/></g></g></g><g fill="#ffbe2d" fill-opacity="1"><g transform="translate(91.802291, 236.014685)"><g><path d="M 19.359375 0 L 3.984375 0 C 3.421875 0 3.140625 -0.28125 3.140625 -0.84375 L 3.140625 -30.921875 C 3.140625 -31.484375 3.421875 -31.765625 3.984375 -31.765625 L 19.359375 -31.765625 C 19.921875 -31.765625 20.203125 -31.484375 20.203125 -30.921875 L 20.203125 -28.828125 C 20.203125 -28.265625 19.921875 -27.984375 19.359375 -27.984375 L 7.203125 -27.984375 L 7.203125 -13.859375 L 17.703125 -13.859375 C 18.265625 -13.859375 18.546875 -13.578125 18.546875 -13.015625 L 18.546875 -11 C 18.546875 -10.4375 18.265625 -10.15625 17.703125 -10.15625 L 7.203125 -10.15625 L 7.203125 -3.78125 L 19.359375 -3.78125 C 19.921875 -3.78125 20.203125 -3.5 20.203125 -2.9375 L 20.203125 -0.84375 C 20.203125 -0.28125 19.921875 0 19.359375 0 Z M 19.359375 0 "/></g></g></g><g fill="#ffbe2d" fill-opacity="1"><g transform="translate(119.674046, 236.014685)"><g><path d="M 12.03125 0.65625 C 11.039062 0.65625 10.039062 0.585938 9.03125 0.453125 C 8.03125 0.316406 6.96875 0.0703125 5.84375 -0.28125 C 4.71875 -0.632812 3.492188 -1.113281 2.171875 -1.71875 C 1.660156 -1.976562 1.535156 -2.363281 1.796875 -2.875 L 2.6875 -4.90625 C 2.945312 -5.394531 3.34375 -5.503906 3.875 -5.234375 C 5.519531 -4.347656 6.988281 -3.753906 8.28125 -3.453125 C 9.570312 -3.148438 10.734375 -3 11.765625 -3 C 13.578125 -3 15.007812 -3.382812 16.0625 -4.15625 C 17.125 -4.925781 17.65625 -6.015625 17.65625 -7.421875 C 17.65625 -8.234375 17.457031 -8.960938 17.0625 -9.609375 C 16.664062 -10.265625 16.117188 -10.867188 15.421875 -11.421875 C 14.734375 -11.972656 13.9375 -12.507812 13.03125 -13.03125 C 12.132812 -13.550781 11.175781 -14.097656 10.15625 -14.671875 C 9.164062 -15.234375 8.195312 -15.816406 7.25 -16.421875 C 6.300781 -17.023438 5.453125 -17.703125 4.703125 -18.453125 C 3.953125 -19.210938 3.351562 -20.082031 2.90625 -21.0625 C 2.457031 -22.039062 2.234375 -23.171875 2.234375 -24.453125 C 2.234375 -25.835938 2.476562 -27.03125 2.96875 -28.03125 C 3.46875 -29.03125 4.148438 -29.859375 5.015625 -30.515625 C 5.890625 -31.171875 6.878906 -31.65625 7.984375 -31.96875 C 9.097656 -32.28125 10.273438 -32.4375 11.515625 -32.4375 C 12.785156 -32.4375 14.128906 -32.269531 15.546875 -31.9375 C 16.972656 -31.613281 18.390625 -31.148438 19.796875 -30.546875 C 20.316406 -30.296875 20.453125 -29.914062 20.203125 -29.40625 L 19.375 -27.40625 C 19.25 -27.1875 19.09375 -27.035156 18.90625 -26.953125 C 18.726562 -26.867188 18.507812 -26.890625 18.25 -27.015625 C 17.113281 -27.535156 15.96875 -27.941406 14.8125 -28.234375 C 13.65625 -28.535156 12.550781 -28.6875 11.5 -28.6875 C 10.570312 -28.6875 9.710938 -28.550781 8.921875 -28.28125 C 8.128906 -28.007812 7.492188 -27.582031 7.015625 -27 C 6.546875 -26.425781 6.3125 -25.671875 6.3125 -24.734375 C 6.3125 -23.910156 6.488281 -23.171875 6.84375 -22.515625 C 7.207031 -21.859375 7.695312 -21.253906 8.3125 -20.703125 C 8.9375 -20.160156 9.644531 -19.648438 10.4375 -19.171875 C 11.226562 -18.703125 12.066406 -18.226562 12.953125 -17.75 C 13.773438 -17.289062 14.609375 -16.816406 15.453125 -16.328125 C 16.296875 -15.835938 17.09375 -15.3125 17.84375 -14.75 C 18.59375 -14.1875 19.257812 -13.554688 19.84375 -12.859375 C 20.425781 -12.171875 20.882812 -11.398438 21.21875 -10.546875 C 21.5625 -9.691406 21.734375 -8.726562 21.734375 -7.65625 C 21.734375 -6.269531 21.476562 -5.054688 20.96875 -4.015625 C 20.457031 -2.984375 19.753906 -2.117188 18.859375 -1.421875 C 17.960938 -0.722656 16.929688 -0.203125 15.765625 0.140625 C 14.597656 0.484375 13.351562 0.65625 12.03125 0.65625 Z M 12.03125 0.65625 "/></g></g></g><g fill="#ffbe2d" fill-opacity="1"><g transform="translate(149.055221, 236.014685)"><g><path d="M 12.03125 0.65625 C 11.039062 0.65625 10.039062 0.585938 9.03125 0.453125 C 8.03125 0.316406 6.96875 0.0703125 5.84375 -0.28125 C 4.71875 -0.632812 3.492188 -1.113281 2.171875 -1.71875 C 1.660156 -1.976562 1.535156 -2.363281 1.796875 -2.875 L 2.6875 -4.90625 C 2.945312 -5.394531 3.34375 -5.503906 3.875 -5.234375 C 5.519531 -4.347656 6.988281 -3.753906 8.28125 -3.453125 C 9.570312 -3.148438 10.734375 -3 11.765625 -3 C 13.578125 -3 15.007812 -3.382812 16.0625 -4.15625 C 17.125 -4.925781 17.65625 -6.015625 17.65625 -7.421875 C 17.65625 -8.234375 17.457031 -8.960938 17.0625 -9.609375 C 16.664062 -10.265625 16.117188 -10.867188 15.421875 -11.421875 C 14.734375 -11.972656 13.9375 -12.507812 13.03125 -13.03125 C 12.132812 -13.550781 11.175781 -14.097656 10.15625 -14.671875 C 9.164062 -15.234375 8.195312 -15.816406 7.25 -16.421875 C 6.300781 -17.023438 5.453125 -17.703125 4.703125 -18.453125 C 3.953125 -19.210938 3.351562 -20.082031 2.90625 -21.0625 C 2.457031 -22.039062 2.234375 -23.171875 2.234375 -24.453125 C 2.234375 -25.835938 2.476562 -27.03125 2.96875 -28.03125 C 3.46875 -29.03125 4.148438 -29.859375 5.015625 -30.515625 C 5.890625 -31.171875 6.878906 -31.65625 7.984375 -31.96875 C 9.097656 -32.28125 10.273438 -32.4375 11.515625 -32.4375 C 12.785156 -32.4375 14.128906 -32.269531 15.546875 -31.9375 C 16.972656 -31.613281 18.390625 -31.148438 19.796875 -30.546875 C 20.316406 -30.296875 20.453125 -29.914062 20.203125 -29.40625 L 19.375 -27.40625 C 19.25 -27.1875 19.09375 -27.035156 18.90625 -26.953125 C 18.726562 -26.867188 18.507812 -26.890625 18.25 -27.015625 C 17.113281 -27.535156 15.96875 -27.941406 14.8125 -28.234375 C 13.65625 -28.535156 12.550781 -28.6875 11.5 -28.6875 C 10.570312 -28.6875 9.710938 -28.550781 8.921875 -28.28125 C 8.128906 -28.007812 7.492188 -27.582031 7.015625 -27 C 6.546875 -26.425781 6.3125 -25.671875 6.3125 -24.734375 C 6.3125 -23.910156 6.488281 -23.171875 6.84375 -22.515625 C 7.207031 -21.859375 7.695312 -21.253906 8.3125 -20.703125 C 8.9375 -20.160156 9.644531 -19.648438 10.4375 -19.171875 C 11.226562 -18.703125 12.066406 -18.226562 12.953125 -17.75 C 13.773438 -17.289062 14.609375 -16.816406 15.453125 -16.328125 C 16.296875 -15.835938 17.09375 -15.3125 17.84375 -14.75 C 18.59375 -14.1875 19.257812 -13.554688 19.84375 -12.859375 C 20.425781 -12.171875 20.882812 -11.398438 21.21875 -10.546875 C 21.5625 -9.691406 21.734375 -8.726562 21.734375 -7.65625 C 21.734375 -6.269531 21.476562 -5.054688 20.96875 -4.015625 C 20.457031 -2.984375 19.753906 -2.117188 18.859375 -1.421875 C 17.960938 -0.722656 16.929688 -0.203125 15.765625 0.140625 C 14.597656 0.484375 13.351562 0.65625 12.03125 0.65625 Z M 12.03125 0.65625 "/></g></g></g><g fill="#ffbe2d" fill-opacity="1"><g transform="translate(178.436396, 236.014685)"><g/></g></g><g fill="#ffbe2d" fill-opacity="1"><g transform="translate(196.589925, 236.014685)"><g><path d="M 11.765625 0 L 9.390625 0 C 8.828125 0 8.546875 -0.28125 8.546875 -0.84375 L 8.546875 -27.984375 L 1.34375 -27.984375 C 0.78125 -27.984375 0.5 -28.265625 0.5 -28.828125 L 0.5 -30.921875 C 0.5 -31.484375 0.78125 -31.765625 1.34375 -31.765625 L 19.8125 -31.765625 C 20.375 -31.765625 20.65625 -31.484375 20.65625 -30.921875 L 20.65625 -28.828125 C 20.65625 -28.265625 20.375 -27.984375 19.8125 -27.984375 L 12.609375 -27.984375 L 12.609375 -0.84375 C 12.609375 -0.28125 12.328125 0 11.765625 0 Z M 11.765625 0 "/></g></g></g><g fill="#ffbe2d" fill-opacity="1"><g transform="translate(223.779329, 236.014685)"><g><path d="M 18.328125 0.65625 C 16.492188 0.65625 14.742188 0.398438 13.078125 -0.109375 C 11.421875 -0.628906 9.90625 -1.375 8.53125 -2.34375 C 7.15625 -3.320312 5.960938 -4.492188 4.953125 -5.859375 C 3.953125 -7.222656 3.175781 -8.75 2.625 -10.4375 C 2.070312 -12.125 1.796875 -13.941406 1.796875 -15.890625 C 1.796875 -17.828125 2.070312 -19.640625 2.625 -21.328125 C 3.175781 -23.023438 3.953125 -24.550781 4.953125 -25.90625 C 5.960938 -27.257812 7.15625 -28.421875 8.53125 -29.390625 C 9.90625 -30.367188 11.421875 -31.117188 13.078125 -31.640625 C 14.742188 -32.171875 16.492188 -32.4375 18.328125 -32.4375 C 20.160156 -32.4375 21.90625 -32.171875 23.5625 -31.640625 C 25.226562 -31.117188 26.75 -30.367188 28.125 -29.390625 C 29.507812 -28.421875 30.703125 -27.257812 31.703125 -25.90625 C 32.710938 -24.550781 33.492188 -23.023438 34.046875 -21.328125 C 34.597656 -19.640625 34.875 -17.828125 34.875 -15.890625 C 34.875 -13.941406 34.597656 -12.125 34.046875 -10.4375 C 33.492188 -8.75 32.710938 -7.222656 31.703125 -5.859375 C 30.703125 -4.492188 29.507812 -3.320312 28.125 -2.34375 C 26.75 -1.375 25.234375 -0.628906 23.578125 -0.109375 C 21.921875 0.398438 20.171875 0.65625 18.328125 0.65625 Z M 18.328125 -3.25 C 20.046875 -3.25 21.65625 -3.550781 23.15625 -4.15625 C 24.664062 -4.757812 25.992188 -5.625 27.140625 -6.75 C 28.285156 -7.875 29.179688 -9.207031 29.828125 -10.75 C 30.472656 -12.300781 30.796875 -14.015625 30.796875 -15.890625 C 30.796875 -17.765625 30.472656 -19.472656 29.828125 -21.015625 C 29.179688 -22.554688 28.285156 -23.890625 27.140625 -25.015625 C 25.992188 -26.140625 24.664062 -27.003906 23.15625 -27.609375 C 21.65625 -28.210938 20.046875 -28.515625 18.328125 -28.515625 C 16.597656 -28.515625 14.976562 -28.210938 13.46875 -27.609375 C 11.957031 -27.003906 10.628906 -26.140625 9.484375 -25.015625 C 8.347656 -23.890625 7.457031 -22.554688 6.8125 -21.015625 C 6.175781 -19.472656 5.859375 -17.765625 5.859375 -15.890625 C 5.859375 -14.023438 6.179688 -12.316406 6.828125 -10.765625 C 7.472656 -9.222656 8.367188 -7.890625 9.515625 -6.765625 C 10.660156 -5.648438 11.984375 -4.785156 13.484375 -4.171875 C 14.984375 -3.554688 16.597656 -3.25 18.328125 -3.25 Z M 18.328125 -3.25 "/></g></g></g><g fill="#ffbe2d" fill-opacity="1"><g transform="translate(266.476562, 236.014685)"><g><path d="M 18.328125 0.65625 C 16.492188 0.65625 14.742188 0.398438 13.078125 -0.109375 C 11.421875 -0.628906 9.90625 -1.375 8.53125 -2.34375 C 7.15625 -3.320312 5.960938 -4.492188 4.953125 -5.859375 C 3.953125 -7.222656 3.175781 -8.75 2.625 -10.4375 C 2.070312 -12.125 1.796875 -13.941406 1.796875 -15.890625 C 1.796875 -17.828125 2.070312 -19.640625 2.625 -21.328125 C 3.175781 -23.023438 3.953125 -24.550781 4.953125 -25.90625 C 5.960938 -27.257812 7.15625 -28.421875 8.53125 -29.390625 C 9.90625 -30.367188 11.421875 -31.117188 13.078125 -31.640625 C 14.742188 -32.171875 16.492188 -32.4375 18.328125 -32.4375 C 20.160156 -32.4375 21.90625 -32.171875 23.5625 -31.640625 C 25.226562 -31.117188 26.75 -30.367188 28.125 -29.390625 C 29.507812 -28.421875 30.703125 -27.257812 31.703125 -25.90625 C 32.710938 -24.550781 33.492188 -23.023438 34.046875 -21.328125 C 34.597656 -19.640625 34.875 -17.828125 34.875 -15.890625 C 34.875 -13.941406 34.597656 -12.125 34.046875 -10.4375 C 33.492188 -8.75 32.710938 -7.222656 31.703125 -5.859375 C 30.703125 -4.492188 29.507812 -3.320312 28.125 -2.34375 C 26.75 -1.375 25.234375 -0.628906 23.578125 -0.109375 C 21.921875 0.398438 20.171875 0.65625 18.328125 0.65625 Z M 18.328125 -3.25 C 20.046875 -3.25 21.65625 -3.550781 23.15625 -4.15625 C 24.664062 -4.757812 25.992188 -5.625 27.140625 -6.75 C 28.285156 -7.875 29.179688 -9.207031 29.828125 -10.75 C 30.472656 -12.300781 30.796875 -14.015625 30.796875 -15.890625 C 30.796875 -17.765625 30.472656 -19.472656 29.828125 -21.015625 C 29.179688 -22.554688 28.285156 -23.890625 27.140625 -25.015625 C 25.992188 -26.140625 24.664062 -27.003906 23.15625 -27.609375 C 21.65625 -28.210938 20.046875 -28.515625 18.328125 -28.515625 C 16.597656 -28.515625 14.976562 -28.210938 13.46875 -27.609375 C 11.957031 -27.003906 10.628906 -26.140625 9.484375 -25.015625 C 8.347656 -23.890625 7.457031 -22.554688 6.8125 -21.015625 C 6.175781 -19.472656 5.859375 -17.765625 5.859375 -15.890625 C 5.859375 -14.023438 6.179688 -12.316406 6.828125 -10.765625 C 7.472656 -9.222656 8.367188 -7.890625 9.515625 -6.765625 C 10.660156 -5.648438 11.984375 -4.785156 13.484375 -4.171875 C 14.984375 -3.554688 16.597656 -3.25 18.328125 -3.25 Z M 18.328125 -3.25 "/></g></g></g><g fill="#ffbe2d" fill-opacity="1"><g transform="translate(309.173795, 236.014685)"><g><path d="M 16.59375 0 L 3.984375 0 C 3.421875 0 3.140625 -0.28125 3.140625 -0.84375 L 3.140625 -30.921875 C 3.140625 -31.484375 3.421875 -31.765625 3.984375 -31.765625 L 6.34375 -31.765625 C 6.914062 -31.765625 7.203125 -31.484375 7.203125 -30.921875 L 7.203125 -3.78125 L 16.59375 -3.78125 C 17.15625 -3.78125 17.4375 -3.5 17.4375 -2.9375 L 17.4375 -0.84375 C 17.4375 -0.28125 17.15625 0 16.59375 0 Z M 16.59375 0 "/></g></g></g><g fill="#ffbe2d" fill-opacity="1"><g transform="translate(333.158266, 236.014685)"><g><path d="M 12.03125 0.65625 C 11.039062 0.65625 10.039062 0.585938 9.03125 0.453125 C 8.03125 0.316406 6.96875 0.0703125 5.84375 -0.28125 C 4.71875 -0.632812 3.492188 -1.113281 2.171875 -1.71875 C 1.660156 -1.976562 1.535156 -2.363281 1.796875 -2.875 L 2.6875 -4.90625 C 2.945312 -5.394531 3.34375 -5.503906 3.875 -5.234375 C 5.519531 -4.347656 6.988281 -3.753906 8.28125 -3.453125 C 9.570312 -3.148438 10.734375 -3 11.765625 -3 C 13.578125 -3 15.007812 -3.382812 16.0625 -4.15625 C 17.125 -4.925781 17.65625 -6.015625 17.65625 -7.421875 C 17.65625 -8.234375 17.457031 -8.960938 17.0625 -9.609375 C 16.664062 -10.265625 16.117188 -10.867188 15.421875 -11.421875 C 14.734375 -11.972656 13.9375 -12.507812 13.03125 -13.03125 C 12.132812 -13.550781 11.175781 -14.097656 10.15625 -14.671875 C 9.164062 -15.234375 8.195312 -15.816406 7.25 -16.421875 C 6.300781 -17.023438 5.453125 -17.703125 4.703125 -18.453125 C 3.953125 -19.210938 3.351562 -20.082031 2.90625 -21.0625 C 2.457031 -22.039062 2.234375 -23.171875 2.234375 -24.453125 C 2.234375 -25.835938 2.476562 -27.03125 2.96875 -28.03125 C 3.46875 -29.03125 4.148438 -29.859375 5.015625 -30.515625 C 5.890625 -31.171875 6.878906 -31.65625 7.984375 -31.96875 C 9.097656 -32.28125 10.273438 -32.4375 11.515625 -32.4375 C 12.785156 -32.4375 14.128906 -32.269531 15.546875 -31.9375 C 16.972656 -31.613281 18.390625 -31.148438 19.796875 -30.546875 C 20.316406 -30.296875 20.453125 -29.914062 20.203125 -29.40625 L 19.375 -27.40625 C 19.25 -27.1875 19.09375 -27.035156 18.90625 -26.953125 C 18.726562 -26.867188 18.507812 -26.890625 18.25 -27.015625 C 17.113281 -27.535156 15.96875 -27.941406 14.8125 -28.234375 C 13.65625 -28.535156 12.550781 -28.6875 11.5 -28.6875 C 10.570312 -28.6875 9.710938 -28.550781 8.921875 -28.28125 C 8.128906 -28.007812 7.492188 -27.582031 7.015625 -27 C 6.546875 -26.425781 6.3125 -25.671875 6.3125 -24.734375 C 6.3125 -23.910156 6.488281 -23.171875 6.84375 -22.515625 C 7.207031 -21.859375 7.695312 -21.253906 8.3125 -20.703125 C 8.9375 -20.160156 9.644531 -19.648438 10.4375 -19.171875 C 11.226562 -18.703125 12.066406 -18.226562 12.953125 -17.75 C 13.773438 -17.289062 14.609375 -16.816406 15.453125 -16.328125 C 16.296875 -15.835938 17.09375 -15.3125 17.84375 -14.75 C 18.59375 -14.1875 19.257812 -13.554688 19.84375 -12.859375 C 20.425781 -12.171875 20.882812 -11.398438 21.21875 -10.546875 C 21.5625 -9.691406 21.734375 -8.726562 21.734375 -7.65625 C 21.734375 -6.269531 21.476562 -5.054688 20.96875 -4.015625 C 20.457031 -2.984375 19.753906 -2.117188 18.859375 -1.421875 C 17.960938 -0.722656 16.929688 -0.203125 15.765625 0.140625 C 14.597656 0.484375 13.351562 0.65625 12.03125 0.65625 Z M 12.03125 0.65625 "/></g></g></g><g clip-path="url(#352a3390ed)"><path fill="#ffbe2d" d="M 151.894531 272.488281 L 158.953125 186.238281 L 216.015625 186.238281 L 223.074219 272.488281 Z M 230.359375 272.488281 L 143.855469 272.488281 C 143.855469 286.394531 136.605469 299.636719 126.878906 308.867188 L 115.957031 319.226562 C 112.636719 321.332031 110.597656 325.152344 110.597656 329.289062 C 110.597656 335.75 115.496094 340.988281 121.539062 340.980469 L 253.4375 340.921875 C 259.480469 340.921875 264.371094 335.683594 264.371094 329.230469 L 264.371094 329.222656 C 264.371094 325.089844 262.332031 321.265625 259.007812 319.160156 L 245.949219 307.015625 C 236.644531 298.363281 231.867188 286.042969 231.214844 272.875 Z M 270.265625 348.164062 C 270.265625 344.191406 267.050781 340.980469 263.082031 340.980469 L 111.886719 340.980469 C 107.917969 340.980469 104.703125 344.191406 104.703125 348.164062 C 104.703125 352.132812 107.917969 355.347656 111.886719 355.347656 L 263.082031 355.347656 C 267.050781 355.347656 270.265625 352.132812 270.265625 348.164062 Z M 239.277344 177.484375 C 239.277344 172.625 235.34375 168.6875 230.484375 168.6875 L 144.484375 168.6875 C 139.625 168.6875 135.691406 172.625 135.691406 177.484375 C 135.691406 182.34375 139.625 186.277344 144.484375 186.277344 L 230.484375 186.277344 C 235.34375 186.277344 239.277344 182.34375 239.277344 177.484375 Z M 233.511719 159.894531 C 233.511719 155.035156 229.578125 151.097656 224.71875 151.097656 L 150.25 151.097656 C 145.390625 151.097656 141.457031 155.035156 141.457031 159.894531 C 141.457031 164.753906 145.390625 168.6875 150.25 168.6875 L 224.710938 168.6875 C 229.578125 168.6875 233.511719 164.753906 233.511719 159.894531 Z M 211.625 64.058594 C 211.625 59.199219 207.6875 55.261719 202.828125 55.261719 L 172.136719 55.261719 C 167.277344 55.261719 163.34375 59.199219 163.34375 64.058594 C 163.34375 68.917969 167.277344 72.855469 172.136719 72.855469 L 202.820312 72.855469 C 207.6875 72.855469 211.625 68.917969 211.625 64.058594 Z M 229.570312 72.855469 L 145.398438 72.855469 C 138.921875 72.855469 134.195312 79.003906 135.882812 85.265625 L 153.558594 151.097656 L 221.417969 151.097656 L 239.09375 85.265625 C 240.773438 79.003906 236.054688 72.855469 229.570312 72.855469 Z M 206.539062 31 L 195.183594 31 L 195.183594 19.644531 L 182.277344 19.644531 L 182.277344 31 L 170.921875 31 L 170.921875 43.917969 L 182.277344 43.917969 L 182.277344 55.269531 L 195.191406 55.269531 L 195.191406 43.90625 L 206.546875 43.90625 L 206.546875 31 Z M 206.539062 31 " fill-opacity="1" fill-rule="nonzero"/></g><g clip-path="url(#c923891e5f)"><path fill="#f5f5ef" d="M 223.074219 274.585938 L 151.902344 274.585938 C 151.316406 274.585938 150.753906 274.34375 150.359375 273.90625 C 149.964844 273.46875 149.765625 272.898438 149.8125 272.3125 L 156.871094 186.0625 C 156.964844 184.96875 157.871094 184.128906 158.960938 184.128906 L 216.023438 184.128906 C 217.113281 184.128906 218.027344 184.96875 218.113281 186.0625 L 225.171875 272.3125 C 225.222656 272.898438 225.019531 273.46875 224.625 273.90625 C 224.214844 274.34375 223.660156 274.585938 223.074219 274.585938 Z M 154.179688 270.390625 L 220.796875 270.390625 L 214.085938 188.335938 L 160.882812 188.335938 Z M 121.539062 343.078125 C 118.03125 343.078125 114.742188 341.625 112.273438 338.988281 C 109.839844 336.386719 108.507812 332.945312 108.507812 329.289062 C 108.507812 324.539062 110.855469 320.074219 114.667969 317.570312 L 125.441406 307.351562 C 135.664062 297.648438 141.765625 284.613281 141.765625 272.488281 C 141.765625 271.328125 142.707031 270.390625 143.863281 270.390625 L 230.367188 270.390625 C 230.660156 270.390625 230.953125 270.457031 231.222656 270.574219 L 232.078125 270.960938 C 232.800781 271.277344 233.277344 271.984375 233.3125 272.773438 C 233.964844 286.03125 238.960938 297.648438 247.378906 305.476562 L 260.300781 317.496094 C 264.113281 319.996094 266.472656 324.472656 266.472656 329.222656 C 266.472656 336.832031 260.621094 343.019531 253.4375 343.027344 Z M 145.902344 274.585938 C 145.273438 287.367188 138.945312 300.316406 128.320312 310.394531 L 117.402344 320.753906 C 117.300781 320.84375 117.191406 320.929688 117.082031 321.003906 C 114.382812 322.714844 112.695312 325.898438 112.695312 329.289062 C 112.695312 331.882812 113.632812 334.308594 115.335938 336.128906 C 117 337.90625 119.207031 338.890625 121.539062 338.890625 L 253.4375 338.832031 C 258.3125 338.832031 262.273438 334.523438 262.273438 329.238281 C 262.273438 325.832031 260.597656 322.65625 257.886719 320.9375 C 257.777344 320.871094 257.675781 320.785156 257.582031 320.703125 L 244.523438 308.558594 C 235.644531 300.300781 230.25 288.289062 229.226562 274.59375 L 145.902344 274.59375 Z M 263.082031 357.445312 L 111.886719 357.445312 C 106.769531 357.445312 102.605469 353.28125 102.605469 348.164062 C 102.605469 343.042969 106.769531 338.878906 111.886719 338.878906 L 263.082031 338.878906 C 268.199219 338.878906 272.363281 343.042969 272.363281 348.164062 C 272.363281 353.28125 268.199219 357.445312 263.082031 357.445312 Z M 111.886719 343.078125 C 109.085938 343.078125 106.800781 345.359375 106.800781 348.164062 C 106.800781 350.964844 109.085938 353.25 111.886719 353.25 L 263.082031 353.25 C 265.882812 353.25 268.167969 350.964844 268.167969 348.164062 C 268.167969 345.359375 265.882812 343.078125 263.082031 343.078125 Z M 230.484375 188.378906 L 144.484375 188.378906 C 138.476562 188.378906 133.589844 183.492188 133.589844 177.484375 C 133.589844 171.472656 138.476562 166.589844 144.484375 166.589844 L 230.484375 166.589844 C 236.492188 166.589844 241.378906 171.472656 241.378906 177.484375 C 241.378906 183.492188 236.492188 188.378906 230.484375 188.378906 Z M 144.484375 170.785156 C 140.792969 170.785156 137.789062 173.789062 137.789062 177.484375 C 137.789062 181.175781 140.792969 184.179688 144.484375 184.179688 L 230.484375 184.179688 C 234.175781 184.179688 237.179688 181.175781 237.179688 177.484375 C 237.179688 173.789062 234.175781 170.785156 230.484375 170.785156 Z M 224.71875 170.785156 L 150.25 170.785156 C 144.242188 170.785156 139.355469 165.902344 139.355469 159.894531 C 139.355469 153.882812 144.242188 149 150.25 149 L 224.71875 149 C 230.726562 149 235.613281 153.882812 235.613281 159.894531 C 235.613281 165.902344 230.726562 170.785156 224.71875 170.785156 Z M 150.25 153.195312 C 146.558594 153.195312 143.554688 156.199219 143.554688 159.894531 C 143.554688 163.585938 146.558594 166.589844 150.25 166.589844 L 224.71875 166.589844 C 228.410156 166.589844 231.414062 163.585938 231.414062 159.894531 C 231.414062 156.199219 228.410156 153.195312 224.71875 153.195312 Z M 202.828125 74.953125 L 172.136719 74.953125 C 166.128906 74.953125 161.246094 70.066406 161.246094 64.058594 C 161.246094 58.050781 166.128906 53.164062 172.136719 53.164062 L 202.820312 53.164062 C 208.832031 53.164062 213.714844 58.050781 213.714844 64.058594 C 213.722656 70.066406 208.832031 74.953125 202.828125 74.953125 Z M 172.136719 57.359375 C 168.445312 57.359375 165.441406 60.367188 165.441406 64.058594 C 165.441406 67.75 168.445312 70.753906 172.136719 70.753906 L 202.820312 70.753906 C 206.515625 70.753906 209.519531 67.75 209.519531 64.058594 C 209.519531 60.367188 206.515625 57.359375 202.820312 57.359375 Z M 221.410156 153.195312 L 153.558594 153.195312 C 152.609375 153.195312 151.777344 152.558594 151.535156 151.644531 L 133.851562 85.8125 C 132.878906 82.195312 133.632812 78.410156 135.90625 75.4375 C 138.191406 72.46875 141.648438 70.753906 145.390625 70.753906 L 229.558594 70.753906 C 233.3125 70.753906 236.761719 72.460938 239.042969 75.4375 C 241.328125 78.417969 242.074219 82.195312 241.101562 85.8125 L 223.425781 151.644531 C 223.199219 152.558594 222.367188 153.195312 221.410156 153.195312 Z M 155.160156 149 L 219.800781 149 L 237.054688 84.722656 C 237.683594 82.371094 237.199219 79.921875 235.71875 77.988281 C 234.242188 76.058594 231.996094 74.953125 229.558594 74.953125 L 145.398438 74.953125 C 142.964844 74.953125 140.726562 76.058594 139.238281 77.988281 C 137.761719 79.921875 137.277344 82.371094 137.90625 84.722656 Z M 160.035156 129.578125 C 161.152344 129.277344 161.816406 128.128906 161.523438 127.011719 L 153.777344 98.15625 C 153.472656 97.042969 152.324219 96.378906 151.207031 96.671875 C 150.089844 96.972656 149.429688 98.125 149.722656 99.238281 L 157.46875 128.09375 C 157.71875 129.035156 158.566406 129.644531 159.492188 129.644531 C 159.667969 129.65625 159.851562 129.628906 160.035156 129.578125 Z M 195.191406 57.359375 L 182.277344 57.359375 C 181.117188 57.359375 180.179688 56.421875 180.179688 55.261719 L 180.179688 46.007812 L 170.921875 46.007812 C 169.761719 46.007812 168.824219 45.066406 168.824219 43.90625 L 168.824219 31 C 168.824219 29.84375 169.761719 28.902344 170.921875 28.902344 L 180.179688 28.902344 L 180.179688 19.644531 C 180.179688 18.488281 181.117188 17.546875 182.277344 17.546875 L 195.191406 17.546875 C 196.351562 17.546875 197.289062 18.488281 197.289062 19.644531 L 197.289062 28.902344 L 206.546875 28.902344 C 207.707031 28.902344 208.644531 29.84375 208.644531 31 L 208.644531 43.917969 C 208.644531 45.074219 207.707031 46.015625 206.546875 46.015625 L 197.289062 46.015625 L 197.289062 55.269531 C 197.289062 56.421875 196.351562 57.359375 195.191406 57.359375 Z M 184.375 53.164062 L 193.09375 53.164062 L 193.09375 43.90625 C 193.09375 42.75 194.035156 41.808594 195.191406 41.808594 L 204.449219 41.808594 L 204.449219 33.097656 L 195.191406 33.097656 C 194.035156 33.097656 193.09375 32.160156 193.09375 31 L 193.09375 21.742188 L 184.375 21.742188 L 184.375 31 C 184.375 32.160156 183.433594 33.097656 182.277344 33.097656 L 173.019531 33.097656 L 173.019531 41.816406 L 182.277344 41.816406 C 183.433594 41.816406 184.375 42.757812 184.375 43.917969 Z M 184.375 53.164062 " fill-opacity="1" fill-rule="nonzero"/></g></svg>